# xmcd CD database file
#
# Track frame offsets:
#	150
#	10630
#	27955
#	71005
#	84657
#	95827
#	111130
#	124410
#	136255
#	151930
#	161230
#
# Disc length: 2364 seconds
#
# Revision: 2
# Processed by: cddbd v1.4b41PL1 Copyright (c) Steve Scherf et al.
# Submitted via: Feurio! 1.52 - http://www.feurio.com
#
DISCID=8f093a0b
DTITLE=Rolling Stones - Schoolboy Blues
DYEAR=1900
DGENRE=
TTITLE0=Roll Over Beethoven
TTITLE1=Cops and Robbers
TTITLE2=Catfish
TTITLE3=Loving Sacred Loving
TTITLE4=Let It Rock
TTITLE5=Baby, What´s Wrong
TTITLE6=Andrew´s Blues
TTITLE7=Shades Of Orange
TTITLE8=Schoolboy Blues
TTITLE9=I Don´t Know Why
TTITLE10=Dear Doctor
EXTD=
EXTT0=
EXTT1=
EXTT2=
EXTT3=
EXTT4=
EXTT5=
EXTT6=
EXTT7=
EXTT8=
EXTT9=
EXTT10=
PLAYORDER=
